<svg width="32" height="32" viewBox="0 0 32 32" fill="none" xmlns="http://www.w3.org/2000/svg">
  <!-- Outer Radar Arc -->
  <circle cx="16" cy="16" r="14.5" stroke="#38BDF8" stroke-width="1" stroke-dasharray="60 30" stroke-linecap="round" />
  <circle cx="16" cy="16" r="12" stroke="#38BDF8" stroke-width="0.5" opacity="0.3" />
  
  <!-- Wind Swirl (Atmosphere) -->
  <path d="M6 19C6 19 8 15 12 15C16 15 16 18 20 18C24 18 26 14 26 14" stroke="white" stroke-width="0.8" stroke-linecap="round" opacity="0.6" />
  <path d="M8 22C8 22 10 24 14 24C18 24 20 21 24 21" stroke="white" stroke-width="0.5" stroke-linecap="round" opacity="0.4" />

  <!-- Cloud Icon -->
  <path d="M22.5 18.5C22.5 20.433 20.933 22 19 22H11C9.61929 22 8.5 20.8807 8.5 19.5C8.5 18.4715 9.12158 17.5879 10.0163 17.2033C10.0055 17.1039 10 17.0026 10 16.9C10 15.2984 11.2984 14 12.9 14C13.886 14 14.747 14.49 15.2633 15.2393C15.7725 14.7831 16.4339 14.5 17.16 14.5C18.6675 14.5 19.897 15.666 19.9912 17.147C21.4199 17.2946 22.5 18.4907 22.5 19.5" fill="white" />
</svg>
